<svg width="22" height="25" viewBox="0 0 22 25" fill="none" xmlns="http://www.w3.org/2000/svg">
<path d="M11 25C11.7956 25 12.5587 24.6839 13.1213 24.1213C13.6839 23.5587 14 22.7956 14 22H8C8 22.7956 8.31607 23.5587 8.87868 24.1213C9.44129 24.6839 10.2044 25 11 25ZM12.4925 2.64847C12.5134 2.4399 12.4904 2.22926 12.4249 2.03013C12.3595 1.831 12.253 1.6478 12.1124 1.49236C11.9717 1.33691 11.8001 1.21266 11.6085 1.12763C11.4169 1.04259 11.2096 0.998657 11 0.998657C10.7904 0.998657 10.5831 1.04259 10.3915 1.12763C10.1999 1.21266 10.0283 1.33691 9.88763 1.49236C9.74701 1.6478 9.64052 1.831 9.57505 2.03013C9.50958 2.22926 9.48656 2.4399 9.5075 2.64847C7.81208 2.99332 6.28793 3.91351 5.19315 5.25322C4.09836 6.59293 3.50022 8.26983 3.5 9.99997C3.5 11.647 2.75 19 0.5 20.5H21.5C19.25 19 18.5 11.647 18.5 9.99997C18.5 6.36997 15.92 3.33997 12.4925 2.64847V2.64847Z" fill="white"/>
</svg>
