<svg width="206" height="32" viewBox="0 0 206 32" fill="none" xmlns="http://www.w3.org/2000/svg">
<path d="M35.8331 27.6044C35.71 27.4813 35.6572 27.3406 35.6572 27.1824V10.6901C35.6572 10.5143 35.71 10.356 35.8331 10.2505C35.9561 10.145 36.0968 10.0923 36.255 10.0923H38.277C38.4528 10.0923 38.6111 10.145 38.7166 10.2505C38.8221 10.356 38.8748 10.4967 38.8748 10.6901V19.2176L43.0594 15.2615C43.1122 15.2264 43.2001 15.156 43.3056 15.0681C43.4111 14.9802 43.499 14.9274 43.6045 14.8923C43.71 14.8571 43.833 14.8395 43.9737 14.8395H46.2946C46.4528 14.8395 46.5935 14.8923 46.699 14.9978C46.8045 15.1033 46.8572 15.2264 46.8572 15.4022C46.8572 15.5604 46.7693 15.7011 46.6111 15.8593L41.477 20.6769L47.2264 26.8483C47.3847 27.0066 47.4726 27.1472 47.4726 27.2703C47.4726 27.4286 47.4199 27.5692 47.3144 27.6747C47.2089 27.7802 47.0858 27.8329 46.9275 27.8329H44.5539C44.3253 27.8329 44.1495 27.7978 44.044 27.745C43.9385 27.6923 43.7979 27.5692 43.6396 27.411L38.8748 22.4V27.2351C38.8748 27.3934 38.8221 27.534 38.7166 27.6571C38.6111 27.7802 38.4704 27.8329 38.277 27.8329H36.255C36.0968 27.7802 35.9385 27.7275 35.8331 27.6044Z" fill="white"/>
<path d="M49.899 27.5166C49.1957 27.1825 48.6331 26.7078 48.2287 26.1276C47.8243 25.5474 47.6133 24.9144 47.6133 24.2111C47.6133 23.0858 48.0704 22.1715 48.9847 21.4682C49.899 20.7649 51.1473 20.2902 52.7474 20.0441L56.1583 19.5518V19.0243C56.1583 18.2858 55.9825 17.7408 55.6133 17.3715C55.2441 17.0023 54.6638 16.8265 53.8375 16.8265C53.2924 16.8265 52.8528 16.932 52.5012 17.143C52.1671 17.354 51.8858 17.5474 51.6924 17.7584C51.499 17.9693 51.3583 18.11 51.288 18.1803C51.2177 18.3737 51.0946 18.4792 50.9188 18.4792H49.0023C48.8441 18.4792 48.721 18.4265 48.6155 18.321C48.51 18.2155 48.4572 18.0924 48.4572 17.9166C48.4748 17.4946 48.6858 17.0199 49.0726 16.4924C49.4594 15.9649 50.0572 15.5078 50.8836 15.121C51.6924 14.7342 52.6946 14.5408 53.8726 14.5408C55.8243 14.5408 57.266 14.9803 58.1627 15.8595C59.0594 16.7386 59.5166 17.899 59.5166 19.3232V27.1474C59.5166 27.3056 59.4638 27.4463 59.3583 27.5693C59.2528 27.6924 59.1122 27.7452 58.9188 27.7452H56.8968C56.7386 27.7452 56.5979 27.6924 56.4748 27.5693C56.3517 27.4463 56.299 27.3056 56.299 27.1474V26.1803C55.9298 26.7078 55.4199 27.1474 54.7342 27.4814C54.0484 27.8155 53.2221 27.9913 52.2375 27.9913C51.3759 28.0265 50.6023 27.8507 49.899 27.5166ZM55.3144 24.7737C55.8946 24.1759 56.1935 23.2968 56.1935 22.154V21.6265L53.6968 22.0309C52.7298 22.1891 52.0089 22.4177 51.5166 22.7518C51.0243 23.0858 50.7781 23.4902 50.7781 23.9649C50.7781 24.4924 51.0067 24.9144 51.4463 25.2133C51.9034 25.5122 52.4309 25.6704 53.0638 25.6704C53.9957 25.6704 54.7342 25.3715 55.3144 24.7737Z" fill="white"/>
<path d="M63.0155 26.4088C62.1188 25.3362 61.6441 23.8945 61.5738 22.1011L61.5562 21.2747L61.5738 20.4835C61.6265 18.7428 62.1012 17.3187 63.0155 16.2285C63.9122 15.1384 65.2133 14.5758 66.8837 14.5758C68.5012 14.5758 69.7672 15.1209 70.7166 16.2285V10.6901C70.7166 10.5143 70.7694 10.356 70.8924 10.2505C71.0155 10.145 71.1562 10.0923 71.3144 10.0923H73.4243C73.6001 10.0923 73.7584 10.145 73.8639 10.2505C73.9694 10.356 74.0221 10.4967 74.0221 10.6901V27.1824C74.0221 27.3406 73.9694 27.4813 73.8639 27.6044C73.7584 27.7274 73.6177 27.7802 73.4243 27.7802H71.4551C71.2968 27.7802 71.1562 27.7274 71.0331 27.6044C70.91 27.4813 70.8573 27.3406 70.8573 27.1824V26.2681C69.9078 27.4461 68.5891 28.0439 66.8661 28.0439C65.1957 28.0264 63.9122 27.4813 63.0155 26.4088ZM69.943 24.4395C70.4001 23.8242 70.6639 23.0681 70.7166 22.1714C70.7342 21.978 70.7342 21.6439 70.7342 21.2044C70.7342 20.7648 70.7342 20.4483 70.7166 20.2549C70.6815 19.4285 70.4177 18.7077 69.9254 18.1274C69.4331 17.5296 68.7298 17.2483 67.7979 17.2483C66.0045 17.2483 65.0551 18.356 64.932 20.5714L64.9144 21.3275L64.932 22.0835C65.0551 24.2989 66.0045 25.4066 67.7979 25.4066C68.765 25.3714 69.4859 25.0549 69.943 24.4395Z" fill="white"/>
<path d="M76.9055 27.6043C76.7825 27.4812 76.7297 27.3406 76.7297 27.1823V15.4373C76.7297 15.279 76.7825 15.1208 76.9055 14.9977C77.0286 14.8747 77.1693 14.8043 77.3275 14.8043H79.3495C79.5253 14.8043 79.6836 14.8571 79.8066 14.9801C79.9297 15.1032 79.9825 15.2439 79.9825 15.4373V16.4571C80.3868 15.9296 80.8792 15.5252 81.4945 15.2439C82.0923 14.9626 82.7956 14.8219 83.5693 14.8219H84.5891C84.7649 14.8219 84.9231 14.8747 85.0286 14.9801C85.1341 15.0856 85.1869 15.2263 85.1869 15.4197V17.2131C85.1869 17.3714 85.1341 17.512 85.0286 17.6351C84.9231 17.7582 84.7825 17.8109 84.5891 17.8109H82.6374C81.8638 17.8109 81.2484 18.0395 80.7912 18.479C80.3341 18.9362 80.1231 19.534 80.1231 20.3252V27.1823C80.1231 27.3406 80.0704 27.4812 79.9473 27.6043C79.8242 27.7274 79.6836 27.7801 79.4901 27.7801H77.3275C77.1517 27.7801 77.011 27.7274 76.9055 27.6043Z" fill="white"/>
<path d="M87.5429 26.5143C86.4879 25.5121 85.9077 24.1406 85.8198 22.3824L85.8022 21.2923L85.8198 20.2022C85.9077 18.4791 86.4879 17.1077 87.5605 16.0879C88.633 15.0681 90.1275 14.5758 92.044 14.5758C93.9605 14.5758 95.455 15.0857 96.5275 16.0879C97.6 17.1077 98.1803 18.4791 98.2682 20.2022C98.2857 20.3956 98.2857 20.7648 98.2857 21.2923C98.2857 21.8198 98.2857 22.189 98.2682 22.3824C98.1803 24.1231 97.6176 25.4945 96.5451 26.5143C95.4901 27.5165 93.9781 28.0264 92.0264 28.0264C90.0748 28.0264 88.5978 27.534 87.5429 26.5143ZM94.1011 24.7209C94.5759 24.1582 94.8572 23.3494 94.8923 22.2593C94.9099 22.1011 94.9099 21.767 94.9099 21.2923C94.9099 20.8176 94.9099 20.4835 94.8923 20.3253C94.8396 19.2527 94.5759 18.4264 94.1011 17.8637C93.6264 17.3011 92.9407 17.0373 92.0616 17.0373C91.1824 17.0373 90.4967 17.3187 90.022 17.8637C89.5473 18.4264 89.266 19.2351 89.2308 20.3253L89.2132 21.2923L89.2308 22.2593C89.2835 23.3318 89.5473 24.1582 90.022 24.7209C90.4967 25.2835 91.1824 25.5472 92.0616 25.5472C92.9231 25.5648 93.6088 25.2835 94.1011 24.7209Z" fill="white"/>
<path d="M100.642 27.6044C100.519 27.4813 100.466 27.3406 100.466 27.1824V10.6901C100.466 10.5143 100.519 10.356 100.642 10.2505C100.765 10.145 100.906 10.0923 101.064 10.0923H103.139C103.314 10.0923 103.473 10.145 103.578 10.2505C103.684 10.356 103.736 10.4967 103.736 10.6901V27.1824C103.736 27.3406 103.684 27.4813 103.578 27.6044C103.473 27.7275 103.332 27.7802 103.139 27.7802H101.064C100.906 27.7802 100.765 27.7275 100.642 27.6044Z" fill="#ED3434"/>
<path d="M107.868 27.5166C107.165 27.1825 106.602 26.7078 106.198 26.1276C105.793 25.5474 105.582 24.9144 105.582 24.2111C105.582 23.0858 106.04 22.1715 106.954 21.4682C107.868 20.7649 109.117 20.2902 110.717 20.0441L114.128 19.5518V19.0243C114.128 18.2858 113.952 17.7408 113.582 17.3715C113.213 17.0023 112.633 16.8265 111.807 16.8265C111.262 16.8265 110.822 16.932 110.47 17.143C110.136 17.354 109.855 17.5474 109.662 17.7584C109.468 17.9693 109.328 18.11 109.257 18.1803C109.187 18.3737 109.064 18.4792 108.888 18.4792H106.971C106.813 18.4792 106.69 18.4265 106.585 18.321C106.479 18.2155 106.426 18.0924 106.426 17.9166C106.444 17.4946 106.655 17.0199 107.042 16.4924C107.429 15.9649 108.026 15.5078 108.853 15.121C109.662 14.7342 110.664 14.5408 111.842 14.5408C113.793 14.5408 115.235 14.9803 116.132 15.8595C117.029 16.7386 117.486 17.899 117.486 19.3232V27.1474C117.486 27.3056 117.433 27.4463 117.328 27.5693C117.222 27.6924 117.081 27.7452 116.888 27.7452H114.866C114.708 27.7452 114.567 27.6924 114.444 27.5693C114.321 27.4463 114.268 27.3056 114.268 27.1474V26.1803C113.899 26.7078 113.389 27.1474 112.703 27.4814C112.018 27.8155 111.191 27.9913 110.207 27.9913C109.345 28.0265 108.571 27.8507 107.868 27.5166ZM113.284 24.7737C113.864 24.1759 114.163 23.2968 114.163 22.154V21.6265L111.666 22.0309C110.699 22.1891 109.978 22.4177 109.486 22.7518C108.993 23.0858 108.747 23.4902 108.747 23.9649C108.747 24.4924 108.976 24.9144 109.415 25.2133C109.873 25.5122 110.4 25.6704 111.033 25.6704C111.947 25.6704 112.703 25.3715 113.284 24.7737Z" fill="#ED3434"/>
<path d="M120.211 27.6044C120.088 27.4813 120.035 27.3406 120.035 27.1824V15.4198C120.035 15.2615 120.088 15.1209 120.211 14.9978C120.334 14.8747 120.475 14.822 120.633 14.822H122.673C122.831 14.822 122.972 14.8747 123.095 14.9978C123.218 15.1209 123.27 15.2615 123.27 15.4198V16.4395C124.255 15.1912 125.644 14.5758 127.438 14.5758C128.967 14.5758 130.18 15.0857 131.077 16.0879C131.974 17.0901 132.431 18.4615 132.431 20.1846V27.1824C132.431 27.3406 132.378 27.4813 132.273 27.6044C132.167 27.7275 132.027 27.7802 131.833 27.7802H129.635C129.477 27.7802 129.319 27.7275 129.213 27.6044C129.09 27.4813 129.038 27.3406 129.038 27.1824V20.3253C129.038 19.3406 128.809 18.5846 128.334 18.0395C127.86 17.4945 127.174 17.2308 126.277 17.2308C125.398 17.2308 124.695 17.5121 124.202 18.0571C123.692 18.6022 123.446 19.3582 123.446 20.3253V27.1824C123.446 27.3406 123.394 27.4813 123.288 27.6044C123.183 27.7275 123.042 27.7802 122.849 27.7802H120.651C120.475 27.7802 120.334 27.7275 120.211 27.6044Z" fill="#ED3434"/>
<path d="M135.912 26.4088C135.015 25.3362 134.541 23.8945 134.47 22.1011L134.453 21.2747L134.47 20.4835C134.523 18.7428 134.998 17.3187 135.912 16.2285C136.809 15.1384 138.11 14.5758 139.78 14.5758C141.398 14.5758 142.664 15.1209 143.613 16.2285V10.6901C143.613 10.5143 143.666 10.356 143.789 10.2505C143.912 10.145 144.053 10.0923 144.211 10.0923H146.321C146.497 10.0923 146.655 10.145 146.761 10.2505C146.866 10.356 146.919 10.4967 146.919 10.6901V27.1824C146.919 27.3406 146.866 27.4813 146.761 27.6044C146.655 27.7274 146.514 27.7802 146.321 27.7802H144.352C144.194 27.7802 144.053 27.7274 143.93 27.6044C143.807 27.4813 143.754 27.3406 143.754 27.1824V26.2681C142.805 27.4461 141.486 28.0439 139.763 28.0439C138.092 28.0264 136.809 27.4813 135.912 26.4088ZM142.84 24.4395C143.297 23.8242 143.561 23.0681 143.613 22.1714C143.631 21.978 143.631 21.6439 143.631 21.2044C143.631 20.7648 143.631 20.4483 143.613 20.2549C143.578 19.4285 143.314 18.7077 142.822 18.1274C142.33 17.5296 141.627 17.2483 140.695 17.2483C138.901 17.2483 137.952 18.356 137.829 20.5714L137.811 21.3275L137.829 22.0835C137.952 24.2989 138.901 25.4066 140.695 25.4066C141.662 25.3714 142.365 25.0549 142.84 24.4395Z" fill="#ED3434"/>
<path d="M149.644 27.6044C149.521 27.4813 149.468 27.3406 149.468 27.1824V24.7209C149.468 24.5626 149.521 24.4044 149.644 24.2813C149.767 24.1582 149.908 24.0879 150.066 24.0879H152.563C152.721 24.0879 152.862 24.1582 152.985 24.2813C153.108 24.4044 153.161 24.545 153.161 24.7209V27.1824C153.161 27.3406 153.108 27.4813 152.985 27.6044C152.862 27.7275 152.721 27.7802 152.563 27.7802H150.066C149.89 27.7802 149.75 27.7275 149.644 27.6044Z" fill="white"/>
<path d="M156.73 26.5144C155.64 25.4946 155.059 24.1056 154.989 22.2946L154.971 21.2924L154.989 20.2902C155.059 18.4968 155.64 17.0902 156.73 16.0704C157.82 15.0507 159.279 14.5583 161.108 14.5583C162.409 14.5583 163.499 14.7869 164.413 15.2616C165.31 15.7188 165.996 16.299 166.435 16.9671C166.875 17.6353 167.103 18.2682 167.139 18.866C167.156 19.0243 167.103 19.1649 166.98 19.288C166.857 19.4111 166.717 19.4638 166.541 19.4638H164.343C164.185 19.4638 164.044 19.4287 163.956 19.3583C163.868 19.288 163.78 19.1474 163.692 18.9715C163.446 18.321 163.112 17.8638 162.708 17.5825C162.303 17.3012 161.776 17.1605 161.143 17.1605C160.299 17.1605 159.631 17.4243 159.156 17.9693C158.681 18.5144 158.418 19.3232 158.382 20.4309L158.365 21.3452L158.382 22.1715C158.453 24.3518 159.367 25.4419 161.143 25.4419C161.793 25.4419 162.321 25.3012 162.708 25.0199C163.112 24.7386 163.429 24.2638 163.675 23.6309C163.763 23.455 163.851 23.3144 163.939 23.2441C164.026 23.1737 164.167 23.1386 164.325 23.1386H166.523C166.681 23.1386 166.84 23.1913 166.963 23.3144C167.086 23.4375 167.139 23.5781 167.121 23.7364C167.086 24.3166 166.857 24.9496 166.418 25.6001C165.978 26.2682 165.328 26.8309 164.431 27.3232C163.534 27.8155 162.426 28.0441 161.09 28.0441C159.279 28.0265 157.82 27.5166 156.73 26.5144Z" fill="white"/>
<path d="M170.321 26.5143C169.266 25.5121 168.686 24.1406 168.598 22.3824L168.58 21.2923L168.598 20.2022C168.686 18.4791 169.266 17.1077 170.339 16.0879C171.411 15.0681 172.906 14.5758 174.822 14.5758C176.739 14.5758 178.233 15.0857 179.306 16.0879C180.378 17.1077 180.958 18.4791 181.046 20.2022C181.064 20.3956 181.064 20.7648 181.064 21.2923C181.064 21.8198 181.064 22.189 181.046 22.3824C180.958 24.1231 180.396 25.4945 179.323 26.5143C178.268 27.5165 176.756 28.0264 174.804 28.0264C172.888 28.0264 171.393 27.534 170.321 26.5143ZM176.879 24.7209C177.354 24.1582 177.635 23.3494 177.67 22.2593C177.688 22.1011 177.688 21.767 177.688 21.2923C177.688 20.8176 177.688 20.4835 177.67 20.3253C177.618 19.2527 177.354 18.4264 176.879 17.8637C176.404 17.3011 175.719 17.0373 174.84 17.0373C173.961 17.0373 173.275 17.3187 172.8 17.8637C172.325 18.4264 172.044 19.2351 172.009 20.3253L171.991 21.2923L172.009 22.2593C172.062 23.3318 172.325 24.1582 172.8 24.7209C173.275 25.2835 173.961 25.5472 174.84 25.5472C175.719 25.5648 176.387 25.2835 176.879 24.7209Z" fill="white"/>
<path d="M183.402 27.6044C183.279 27.4813 183.227 27.3406 183.227 27.1824V15.4198C183.227 15.2615 183.279 15.1209 183.402 14.9978C183.525 14.8747 183.666 14.822 183.824 14.822H185.776C185.934 14.822 186.075 14.8747 186.198 14.9978C186.321 15.1209 186.374 15.2615 186.374 15.4198V16.2637C187.235 15.1384 188.448 14.5758 189.996 14.5758C191.842 14.5758 193.125 15.3143 193.864 16.7912C194.268 16.1231 194.831 15.5956 195.552 15.1912C196.29 14.7868 197.064 14.5758 197.925 14.5758C199.279 14.5758 200.405 15.0329 201.266 15.9648C202.128 16.8967 202.567 18.2505 202.567 20.0264V27.1824C202.567 27.3406 202.514 27.4813 202.409 27.6044C202.303 27.7275 202.163 27.7802 201.969 27.7802H199.93C199.772 27.7802 199.631 27.7275 199.508 27.6044C199.385 27.4813 199.332 27.3406 199.332 27.1824V20.2373C199.332 19.1824 199.103 18.4264 198.664 17.9516C198.224 17.4769 197.644 17.2483 196.906 17.2483C196.255 17.2483 195.71 17.4945 195.253 17.9692C194.796 18.4439 194.567 19.2 194.567 20.2373V27.1824C194.567 27.3406 194.514 27.4813 194.391 27.6044C194.268 27.7275 194.128 27.7802 193.969 27.7802H191.93C191.772 27.7802 191.631 27.7275 191.508 27.6044C191.385 27.4813 191.332 27.3406 191.332 27.1824V20.2373C191.332 19.1824 191.103 18.4264 190.646 17.9516C190.189 17.4769 189.609 17.2483 188.906 17.2483C188.238 17.2483 187.675 17.4945 187.218 17.9692C186.761 18.4439 186.532 19.2 186.532 20.2373V27.1824C186.532 27.3406 186.479 27.4813 186.356 27.6044C186.233 27.7275 186.092 27.7802 185.934 27.7802H183.842C183.666 27.7802 183.525 27.7275 183.402 27.6044Z" fill="white"/>
<path d="M23.8769 28.9582H15.578C12.9055 28.9582 10.7253 26.778 10.7253 24.1055V14.7692C10.7253 12.1494 12.8528 9.96923 15.4725 9.91648C16.7912 9.88131 18.022 10.3736 18.9714 11.3055C19.9033 12.2198 20.4308 13.4505 20.4308 14.7692V21.2571C20.4308 22.0659 19.7627 22.7341 18.9539 22.7341C18.1451 22.7341 17.4769 22.0659 17.4769 21.2571V14.7692C17.4769 14.2593 17.2835 13.767 16.9143 13.4154C16.5451 13.0637 16.0528 12.8703 15.5429 12.8703C14.5231 12.8879 13.6791 13.7494 13.6791 14.7692V24.1231C13.6791 25.1604 14.5231 26.022 15.578 26.022H23.8769C24.9143 26.022 25.7758 25.178 25.7758 24.1231V11.5165C25.7758 10.7604 25.3363 10.0923 24.6506 9.77582L16.3517 6.11868C15.8594 5.90769 15.3143 5.90769 14.822 6.11868L6.52309 9.77582C5.83738 10.0747 5.39782 10.7604 5.39782 11.5165V24.1231C5.39782 25.1604 6.24177 26.022 7.29672 26.022H8.5099C9.3187 26.022 9.98683 26.6901 9.98683 27.4989C9.98683 28.3077 9.3187 28.9758 8.5099 28.9758H7.29672C4.62419 28.9758 2.44397 26.7956 2.44397 24.1231V11.5165C2.44397 9.6 3.58683 7.85934 5.32749 7.08571L13.6264 3.42857C14.8747 2.88351 16.2989 2.88351 17.5473 3.42857L25.8462 7.08571C27.6044 7.85934 28.7297 9.6 28.7297 11.5165V24.1231C28.7297 26.778 26.5495 28.9582 23.8769 28.9582Z" fill="url(#paint0_linear_2_163)"/>
<defs>
<linearGradient id="paint0_linear_2_163" x1="4.85807" y1="28.5416" x2="26.3118" y2="7.0878" gradientUnits="userSpaceOnUse">
<stop stop-color="#FF7373"/>
<stop offset="1" stop-color="#E71616"/>
</linearGradient>
</defs>
</svg>
